<?xml version="1.0" encoding="UTF-8" standalone="no"?>
<!-- Created with Inkscape (http://www.inkscape.org/) -->

<svg
   width="129.99464mm"
   height="17.384882mm"
   viewBox="0 0 129.99464 17.384882"
   version="1.1"
   id="svg1"
   xmlns="http://www.w3.org/2000/svg" >
  <defs
     id="defs1">
    <rect
       x="328.51343"
       y="166.03566"
       width="305.98001"
       height="95.470505"
       id="rect2" />
    <rect
       x="128.08466"
       y="172.55849"
       width="572.82306"
       height="183.23221"
       id="rect1" />
  </defs>
  <g
     id="layer1"
     transform="translate(-35.198398,-47.038345)">
    <path
       d="m 133.03332,241.35601 v -61.43997 h 56.74664 v 13.31199 h -43.34932 v 10.752 h 34.90132 v 13.31199 h -34.90132 v 10.752 h 43.34932 v 13.31199 z m 66.34137,0 v 0 -4.26666 l 17.06666,-20.90666 -17.06666,-20.05332 v -4.26667 h 13.39733 l 12.11732,14.33599 12.032,-14.33599 H 250.404 v 4.26667 l -17.06666,20.05332 17.06666,20.90666 v 4.26666 h -13.39733 l -12.11733,-14.84799 -12.11732,14.84799 z m 73.85059,0 q -3.328,0 -6.144,-1.70666 -2.816,-1.70667 -4.52266,-4.52267 -1.70667,-2.816 -1.70667,-6.14399 v -24.74666 q 0,-3.328 1.70667,-6.144 1.70666,-2.816 4.52266,-4.52266 2.816,-1.70667 6.144,-1.70667 h 25.42932 q 3.41334,0 6.22933,1.70667 2.816,1.70666 4.43734,4.52266 1.70666,2.816 1.70666,6.144 v 24.74666 q 0,3.32799 -1.70666,6.14399 -1.62134,2.816 -4.43734,4.52267 -2.81599,1.70666 -6.22933,1.70666 h -25.42932 z m 0.68267,-13.05599 h 24.06399 q 0,0 0,0 0,0 0,0 V 204.9187 q 0,0 0,0 0,0 0,0 h -24.06399 q 0,0 0,0 0,0 0,0 v 23.38132 q 0,0 0,0 z"
       id="text1"
       style="fill:#d3ff31; fill-rule:evenodd; stroke-width:11.67"
       transform="scale(0.26458333)"
       aria-label="Exo" />
    <path
       d="m 345.92166,234.83258 q -3.41333,0 -6.31466,-1.70667 -2.90133,-1.70667 -4.608,-4.608 -1.70666,-2.90133 -1.70666,-6.31466 v -36.18132 q 0,-3.49867 1.70666,-6.31466 1.70667,-2.90134 4.608,-4.608 2.90133,-1.70667 6.31466,-1.70667 h 36.09599 q 3.49866,0 6.31466,1.70667 2.90134,1.70666 4.608,4.608 1.792,2.81599 1.792,6.31466 v 5.80266 h -13.39733 v -5.11999 q 0,0 0,0 0,0 0,0 H 346.519 q 0,0 0,0 0,0 0,0 v 34.81598 q 0,0 0,0 0,0 0,0 h 34.81598 q 0,0 0,0 0,0 0,0 v -9.21599 h -13.31199 v -13.312 h 26.70932 v 23.21066 q 0,3.41333 -1.792,6.31466 -1.70666,2.90133 -4.608,4.608 -2.816,1.70667 -6.31466,1.70667 z m 72.31463,0 q -3.41333,0 -6.22933,-1.70667 -2.816,-1.70667 -4.52266,-4.52267 -1.62133,-2.81599 -1.62133,-6.14399 v -37.11999 h 13.05599 v 36.43732 q 0,0 0,0 0,0 0,0 h 24.06399 q 0,0 0,0 0,0 0,0 v -36.43732 h 13.056 v 37.11999 q 0,3.328 -1.70667,6.14399 -1.62133,2.816 -4.43733,4.52267 -2.816,1.70667 -6.22933,1.70667 h -25.42933 z m 48.84795,0 v 0 -49.49332 h 13.056 v 49.49332 z m 0,-52.56532 v 0 -13.14132 h 13.056 v 13.14132 z m 35.79204,52.56532 q -3.41333,0 -6.22933,-1.70667 -2.81599,-1.70667 -4.52266,-4.52267 -1.70667,-2.81599 -1.70667,-6.14399 v -51.79731 h 13.056 v 14.67732 h 18.34666 v 13.056 h -18.34666 v 23.38132 q 0,0 0,0 0,0 0,0 h 18.34666 v 13.056 h -18.944 z m 42.87473,0 q -3.41333,0 -6.22933,-1.70667 -2.816,-1.70667 -4.52266,-4.52267 -1.62134,-2.81599 -1.62134,-6.14399 v -18.94399 h 37.11999 v -5.12 q 0,0 0,0 0,0 0,0 h -37.11999 v -13.056 h 37.80266 q 3.41333,0 6.22933,1.70667 2.816,1.70666 4.43733,4.52266 1.70666,2.816 1.70666,6.144 v 37.11999 z m 0.68267,-13.056 h 24.06399 v -6.82666 h -24.06399 v 6.82666 q 0,0 0,0 z m 45.86147,13.056 v 0 -37.11999 q 0,-3.328 1.70667,-6.144 1.70666,-2.816 4.52266,-4.52266 2.816,-1.70667 6.22933,-1.70667 h 27.30666 v 13.056 h -26.70933 q 0,0 0,0 0,0 0,0 v 36.43732 z"
       id="text2"
       style="fill:#808080;fill-rule:evenodd;stroke-width:11.67"
       transform="matrix(0.26458333,0,0,0.26458333,-2.0396197,2.2904415)"
       aria-label="Guitar" />
  </g>
</svg>
